# xmcd
# 
# Track frame offsets:
#     183
#     27670
#     62958
#     78633
#     127958
#     141033
#     150718
#     159183
#     173520
#     188495
#     200658
#     231158
#     273858
#     299458
#     306883
# 
# Disc length: 4596
# 
# Revision: 9
# Processed by: cddbd v1.5.2PL0 Copyright (c) Steve Scherf et al.
# Submitted via: fre:ac v1.0.31
# 
DISCID=ce11f20f
DTITLE=Clara Haskil - Clara Haskil Edition - CD 15 - Beethoven
DYEAR=0
DGENRE=Classique
TTITLE0=Piano and Violin Sonata No. 8 in G major, Op. 30 No.3 - I. Allegro assai
TTITLE1=Piano and Violin Sonata No. 8 in G major, Op. 30 No.3 - II. Tempo di menuetto ma molto moderato
TTITLE2=Piano and Violin Sonata No. 8 in G major, Op. 30 No.3 - III. Allegro vivace
TTITLE3=Piano and Violin Sonata No. 9 in A major, Op. 47 'Kreutzer' - I. Adagio sostenuto - Presto
TTITLE4=Piano and Violin Sonata No. 9 in A major, Op. 47 'Kreutzer' - II. Andante con variazoni
TTITLE5=Piano and Violin Sonata No. 9 in A major, Op. 47 'Kreutzer' - Variation I
TTITLE6=Piano and Violin Sonata No. 9 in A major, Op. 47 'Kreutzer' - Variation II
TTITLE7=Piano and Violin Sonata No. 9 in A major, Op. 47 'Kreutzer' - Variation III
TTITLE8=Piano and Violin Sonata No. 9 in A major, Op. 47 'Kreutzer' - Variation IV
TTITLE9=Piano and Violin Sonata No. 9 in A major, Op. 47 'Kreutzer' - Coda, Molto adagio
TTITLE10=Piano and Violin Sonata No. 9 in A major, Op. 47 'Kreutzer' - III. Finale - Presto
TTITLE11=Piano and Violin Sonata No. 10 in G major, Op. 96 - I. Allegro moderato
TTITLE12=Piano and Violin Sonata No. 10 in G major, Op. 96 - II. Adagio espressivo
TTITLE13=Piano and Violin Sonata No. 10 in G major, Op. 96 - III. Scherzo - Allegro
TTITLE14=Piano and Violin Sonata No. 10 in G major, Op. 96 - IV. Poco allegretto
EXTD=Violin - Arthur Grumiaux\nPiano - Clara Haskil
EXTT0=
EXTT1=
EXTT2=
EXTT3=
EXTT4=
EXTT5=
EXTT6=
EXTT7=
EXTT8=
EXTT9=
EXTT10=
EXTT11=
EXTT12=
EXTT13=
EXTT14=
PLAYORDER=
